<?xml version="1.0" encoding="UTF-8" standalone="no"?>
<!-- Created with Inkscape (http://www.inkscape.org/) -->

<svg
   xmlns:dc="http://purl.org/dc/elements/1.1/"
   xmlns:cc="http://creativecommons.org/ns#"
   xmlns:rdf="http://www.w3.org/1999/02/22-rdf-syntax-ns#"
   xmlns:svg="http://www.w3.org/2000/svg"
   xmlns="http://www.w3.org/2000/svg"
   xmlns:sodipodi="http://sodipodi.sourceforge.net/DTD/sodipodi-0.dtd"
   xmlns:inkscape="http://www.inkscape.org/namespaces/inkscape"
   width="118.55471"
   height="111.51955"
   viewBox="0 0 118.55471 111.51955"
   id="svg4753"
   version="1.1"
   inkscape:version="0.91 r13725"
   sodipodi:docname="button.svg">
  <defs
     id="defs4755" />
  <sodipodi:namedview
     id="base"
     pagecolor="#ffffff"
     bordercolor="#666666"
     borderopacity="1.0"
     inkscape:pageopacity="0.0"
     inkscape:pageshadow="2"
     inkscape:zoom="5.1172414"
     inkscape:cx="62.165458"
     inkscape:cy="61.09298"
     inkscape:document-units="px"
     inkscape:current-layer="layer1"
     showgrid="false"
     units="px"
     inkscape:window-width="1920"
     inkscape:window-height="1017"
     inkscape:window-x="1672"
     inkscape:window-y="-8"
     inkscape:window-maximized="1"
     fit-margin-top="0"
     fit-margin-left="0"
     fit-margin-right="0"
     fit-margin-bottom="0" />
  <metadata
     id="metadata4758">
    <rdf:RDF>
      <cc:Work
         rdf:about="">
        <dc:format>image/svg+xml</dc:format>
        <dc:type
           rdf:resource="http://purl.org/dc/dcmitype/StillImage" />
        <dc:title></dc:title>
      </cc:Work>
    </rdf:RDF>
  </metadata>
  <g
     inkscape:label="Layer 1"
     inkscape:groupmode="layer"
     id="layer1"
     transform="translate(-3.5488281,-932.01646)">
    <path
       style="fill:#cccccc;fill-opacity:0.32093027;stroke:#000000;stroke-width:1.5;stroke-linejoin:round;stroke-miterlimit:4;stroke-dasharray:none"
       d="M 10.943359,8.4042969 A 6.6442046,6.6442046 0 0 0 10.472656,8.421875 6.6442046,6.6442046 0 0 0 9.8144531,8.5019531 6.6442046,6.6442046 0 0 0 9.1660156,8.6464844 6.6442046,6.6442046 0 0 0 8.5351562,8.8554688 6.6442046,6.6442046 0 0 0 7.9296875,9.1269531 6.6442046,6.6442046 0 0 0 7.3535156,9.4570312 6.6442046,6.6442046 0 0 0 6.8125,9.84375 a 6.6442046,6.6442046 0 0 0 -0.4980469,0.439453 6.6442046,6.6442046 0 0 0 -0.453125,0.484375 6.6442046,6.6442046 0 0 0 -0.4023437,0.529297 6.6442046,6.6442046 0 0 0 -0.3457032,0.566406 6.6442046,6.6442046 0 0 0 -0.2890624,0.597657 6.6442046,6.6442046 0 0 0 -0.2285157,0.625 6.6442046,6.6442046 0 0 0 -0.1640625,0.642578 6.6442046,6.6442046 0 0 0 -0.099609,0.65625 6.6442046,6.6442046 0 0 0 -0.033203,0.664062 l 0,96.732422 a 6.6442046,6.6442046 0 0 0 0.017578,0.46875 6.6442046,6.6442046 0 0 0 0.080078,0.66016 6.6442046,6.6442046 0 0 0 0.1445312,0.64843 6.6442046,6.6442046 0 0 0 0.2089844,0.62891 6.6442046,6.6442046 0 0 0 0.2714844,0.60742 6.6442046,6.6442046 0 0 0 0.3300781,0.57617 6.6442046,6.6442046 0 0 0 0.3867187,0.53907 6.6442046,6.6442046 0 0 0 0.4394532,0.5 6.6442046,6.6442046 0 0 0 0.484375,0.45117 6.6442046,6.6442046 0 0 0 0.5292968,0.40234 6.6442046,6.6442046 0 0 0 0.5664063,0.34766 6.6442046,6.6442046 0 0 0 0.5976563,0.28906 6.6442046,6.6442046 0 0 0 0.625,0.22656 6.6442046,6.6442046 0 0 0 0.6425781,0.16602 6.6442046,6.6442046 0 0 0 0.6562499,0.0977 6.6442046,6.6442046 0 0 0 0.664062,0.0332 l 103.767581,0 a 6.6442046,6.6442046 0 0 0 0.46875,-0.0156 6.6442046,6.6442046 0 0 0 0.66015,-0.0801 6.6442046,6.6442046 0 0 0 0.64844,-0.14648 6.6442046,6.6442046 0 0 0 0.62891,-0.20898 6.6442046,6.6442046 0 0 0 0.60742,-0.27149 6.6442046,6.6442046 0 0 0 0.57617,-0.33008 6.6442046,6.6442046 0 0 0 0.53906,-0.38671 6.6442046,6.6442046 0 0 0 0.5,-0.4375 6.6442046,6.6442046 0 0 0 0.45313,-0.48633 6.6442046,6.6442046 0 0 0 0.40039,-0.5293 6.6442046,6.6442046 0 0 0 0.34766,-0.56641 6.6442046,6.6442046 0 0 0 0.28906,-0.59765 6.6442046,6.6442046 0 0 0 0.22851,-0.62305 6.6442046,6.6442046 0 0 0 0.16407,-0.64453 6.6442046,6.6442046 0 0 0 0.0977,-0.65625 6.6442046,6.6442046 0 0 0 0.0332,-0.66211 l 0,-96.732422 a 6.6442046,6.6442046 0 0 0 -0.0156,-0.470703 6.6442046,6.6442046 0 0 0 -0.0801,-0.658203 6.6442046,6.6442046 0 0 0 -0.14453,-0.648438 6.6442046,6.6442046 0 0 0 -0.21094,-0.630859 6.6442046,6.6442046 0 0 0 -0.27148,-0.605469 6.6442046,6.6442046 0 0 0 -0.33008,-0.576172 6.6442046,6.6442046 0 0 0 -0.38672,-0.541015 6.6442046,6.6442046 0 0 0 -0.4375,-0.498047 6.6442046,6.6442046 0 0 0 -0.48633,-0.4531251 6.6442046,6.6442046 0 0 0 -0.52929,-0.4023438 6.6442046,6.6442046 0 0 0 -0.56446,-0.3476562 6.6442046,6.6442046 0 0 0 -0.5996,-0.2871094 6.6442046,6.6442046 0 0 0 -0.62305,-0.2285156 6.6442046,6.6442046 0 0 0 -0.64453,-0.1640625 6.6442046,6.6442046 0 0 0 -0.65625,-0.099609 6.6442046,6.6442046 0 0 0 -0.66211,-0.033203 l -103.767581,0 z"
       transform="translate(0,924.36216)"
       id="path5376"
       inkscape:export-filename="C:\Users\matt\Documents\Unity Projects\Ludum Dare 37 - One Room\Assets\Sprites\button.png"
       inkscape:export-xdpi="90"
       inkscape:export-ydpi="90"
       inkscape:connector-curvature="0" />
  </g>
</svg>
