<?xml version="1.0" encoding="UTF-8" standalone="no"?>
<!-- Created with Inkscape (http://www.inkscape.org/) -->

<svg
   xmlns:dc="http://purl.org/dc/elements/1.1/"
   xmlns:cc="http://creativecommons.org/ns#"
   xmlns:rdf="http://www.w3.org/1999/02/22-rdf-syntax-ns#"
   xmlns:svg="http://www.w3.org/2000/svg"
   xmlns="http://www.w3.org/2000/svg"
   xmlns:xlink="http://www.w3.org/1999/xlink"
   xmlns:sodipodi="http://sodipodi.sourceforge.net/DTD/sodipodi-0.dtd"
   xmlns:inkscape="http://www.inkscape.org/namespaces/inkscape"
   width="79.436745mm"
   height="236.70886mm"
   viewBox="0 0 281.46878 838.73219"
   id="svg8188"
   version="1.1"
   inkscape:version="0.91 r13725"
   sodipodi:docname="carrot_thing.svg">
  <defs
     id="defs8190">
    <linearGradient
       inkscape:collect="always"
       id="linearGradient8758">
      <stop
         style="stop-color:#d45500;stop-opacity:1;"
         offset="0"
         id="stop8760" />
      <stop
         style="stop-color:#ff9955;stop-opacity:1"
         offset="1"
         id="stop8762" />
    </linearGradient>
    <linearGradient
       inkscape:collect="always"
       xlink:href="#linearGradient8758"
       id="linearGradient8764"
       x1="430.40097"
       y1="189.34468"
       x2="430.40097"
       y2="240.96867"
       gradientUnits="userSpaceOnUse" />
  </defs>
  <sodipodi:namedview
     id="base"
     pagecolor="#ffffff"
     bordercolor="#666666"
     borderopacity="1.0"
     inkscape:pageopacity="0.0"
     inkscape:pageshadow="2"
     inkscape:zoom="0.91042945"
     inkscape:cx="153.56203"
     inkscape:cy="486.09164"
     inkscape:document-units="px"
     inkscape:current-layer="layer1"
     showgrid="false"
     fit-margin-top="0"
     fit-margin-left="0"
     fit-margin-right="0"
     fit-margin-bottom="0"
     inkscape:window-width="1920"
     inkscape:window-height="1017"
     inkscape:window-x="1672"
     inkscape:window-y="-8"
     inkscape:window-maximized="1" />
  <metadata
     id="metadata8193">
    <rdf:RDF>
      <cc:Work
         rdf:about="">
        <dc:format>image/svg+xml</dc:format>
        <dc:type
           rdf:resource="http://purl.org/dc/dcmitype/StillImage" />
        <dc:title></dc:title>
      </cc:Work>
    </rdf:RDF>
  </metadata>
  <g
     inkscape:label="Layer 1"
     inkscape:groupmode="layer"
     id="layer1"
     transform="translate(-272.15226,-45.058578)">
    <g
       id="g8782"
       inkscape:export-filename="C:\Users\matt\Documents\Unity Projects\Ludum Dare 37 - One Room\Assets\Sprites\carrot_thing.png"
       inkscape:export-xdpi="90"
       inkscape:export-ydpi="90">
      <ellipse
         ry="330"
         rx="84.285713"
         cy="553.79077"
         cx="430"
         id="path8736"
         style="opacity:1;fill:#ff9955;fill-opacity:1;stroke:none;stroke-width:1.5;stroke-linejoin:round;stroke-miterlimit:4;stroke-dasharray:none" />
      <rect
         y="218.07649"
         x="345.82547"
         height="294.48785"
         width="168.34906"
         id="rect8754"
         style="opacity:1;fill:#ff9955;fill-opacity:1;stroke:none;stroke-width:1.5;stroke-linejoin:round;stroke-miterlimit:4;stroke-dasharray:none" />
      <ellipse
         ry="30.754717"
         rx="84.1745"
         cy="220.0994"
         cx="430"
         id="path8756"
         style="opacity:1;fill:url(#linearGradient8764);fill-opacity:1;stroke:none;stroke-width:1.5;stroke-linejoin:round;stroke-miterlimit:4;stroke-dasharray:none" />
      <path
         inkscape:connector-curvature="0"
         d="m 395.52114,192.18544 c -1.94569,-3.64567 -3.81232,-7.33418 -5.37345,-11.1621 -1.12513,-2.88783 -2.63104,-5.59351 -4.06676,-8.3317 -1.20731,-2.45893 -2.29355,-4.95892 -3.68522,-7.32305 -1.77607,-2.95488 -3.47198,-5.9604 -5.35389,-8.84994 -1.43515,-2.48266 -3.16826,-4.76617 -4.81342,-7.10883 -1.26041,-2.03031 -2.62176,-3.98319 -3.96846,-5.95723 -1.35752,-2.01208 -2.92531,-3.86555 -4.40071,-5.7879 -1.75053,-1.93653 -3.51775,-3.85415 -5.25685,-5.80311 -1.77777,-1.69737 -3.51124,-3.4274 -5.35652,-5.05293 -2.31943,-2.13425 -4.5868,-4.30409 -7.03182,-6.29531 -2.32033,-1.96185 -4.6671,-3.86374 -7.16709,-5.58955 -2.54833,-1.8236 -5.27542,-3.37205 -7.99638,-4.91909 -3.75452,-1.80762 -7.62681,-3.32798 -11.48029,-4.90521 -3.83136,-1.48665 -7.73526,-2.80919 -11.73443,-3.76755 -3.2594,-0.51451 -6.34136,-1.691624 -9.56998,-2.329318 -3.91975,-0.475392 -7.8438,-0.943549 -11.77525,-1.337839 -3.41069,-0.564458 -6.83338,-1.02633 -10.27567,-1.343039 0,0 13.1868,-9.37361 13.1868,-9.37361 l 0,0 c 3.41414,0.395919 6.8068,0.932782 10.21346,1.383999 3.98484,0.415528 7.98959,0.759211 11.93851,1.432894 3.21481,0.722031 6.346,1.769553 9.58426,2.402625 4.01271,1.091357 7.97065,2.402526 11.82301,3.970402 3.92343,1.578 7.84295,3.169 11.64159,5.033436 2.79953,1.51773 5.52171,3.18679 8.11571,5.03541 2.52169,1.76205 4.88919,3.71619 7.23712,5.70254 2.43706,2.03022 4.7083,4.2393 7.10678,6.31423 1.88384,1.66751 3.66998,3.43646 5.43546,5.22774 1.77581,1.97581 3.59837,3.90375 5.36306,5.88827 1.4821,1.95382 3.04478,3.84683 4.44215,5.86388 1.34232,1.96695 2.68744,3.92367 3.926,5.95896 1.65072,2.36224 3.38906,4.66798 4.80523,7.18436 1.87144,2.92089 3.54507,5.96306 5.40751,8.89064 1.42081,2.38042 2.55618,4.88652 3.74342,7.38731 1.46239,2.78816 2.92272,5.58201 4.06568,8.52099 1.48856,3.77367 3.20873,7.46725 5.39001,10.89607 0,0 -14.11957,8.14355 -14.11957,8.14355 z"
         id="path8768"
         style="opacity:1;fill:#aad400;fill-opacity:1;stroke:none;stroke-width:1.5;stroke-linejoin:round;stroke-miterlimit:4;stroke-dasharray:none" />
      <path
         inkscape:connector-curvature="0"
         d="m 407.45781,180.13324 c 2.00852,2.24327 4.0378,4.51873 5.65379,7.06723 1.07646,1.96656 1.75706,4.09831 2.61933,6.15784 0.67789,1.93954 1.11168,3.96202 1.58688,5.96121 0.28487,1.72033 0.71188,3.37733 1.58571,4.89045 0,0 -14.11566,8.15123 -14.11566,8.15123 l 0,0 c -0.95349,-1.6462 -1.54238,-3.42528 -1.81845,-5.31322 -0.43551,-1.9201 -0.92161,-3.83322 -1.4734,-5.71912 -0.8107,-1.98697 -1.46,-4.03036 -2.44344,-5.94529 -1.54456,-2.50963 -3.5047,-4.76843 -5.57388,-6.85728 0,0 13.97912,-8.39305 13.97912,-8.39305 z"
         id="path8770"
         style="opacity:1;fill:#aad400;fill-opacity:1;stroke:none;stroke-width:1.5;stroke-linejoin:round;stroke-miterlimit:4;stroke-dasharray:none" />
      <path
         inkscape:connector-curvature="0"
         d="m 408.17303,210.19119 c 2.50754,-5.17487 5.11872,-10.29591 8.05385,-15.24238 2.87414,-5.04183 6.38651,-9.6553 9.98319,-14.19276 2.59232,-3.40556 5.61049,-6.44447 8.74389,-9.34699 3.36937,-2.75733 6.29596,-5.97261 8.92507,-9.42979 2.07656,-2.82418 4.10945,-5.67802 5.94708,-8.66431 1.08161,-2.1677 2.28752,-4.2706 3.77377,-6.18633 1.71249,-1.74915 3.76996,-3.10326 5.68176,-4.62465 6.65959,-4.60839 13.54287,-9.31671 21.09455,-12.24245 2.59429,-1.4508 5.38528,-2.40409 8.09915,-3.60424 3.93919,-1.28538 7.85746,-2.74604 11.90433,-3.66007 4.26167,-0.57813 8.44511,-1.56504 12.66725,-2.35442 4.64771,-0.77509 9.36885,-0.96483 14.07112,-1.10347 3.99276,-0.0962 7.98668,-0.0718 11.98016,-0.0751 3.29398,0.0152 6.66152,0.2572 9.75436,1.44737 1.65371,0.56844 3.23899,1.21218 4.76849,2.05997 0,0 -13.60284,8.91741 -13.60284,8.91741 l 0,0 c -1.49706,-0.72757 -3.04573,-1.31501 -4.61616,-1.86685 -3.03309,-0.89598 -6.22846,-1.08644 -9.37922,-1.0603 -3.96927,-0.0122 -7.9395,-0.0105 -11.90776,0.0886 -4.65971,0.16167 -9.33563,0.39316 -13.9185,1.3162 -4.19408,0.86852 -8.41249,1.58732 -12.61153,2.42187 -3.97495,1.12357 -7.94361,2.34436 -11.77478,3.8914 -2.74867,1.18263 -5.49399,2.34895 -8.18127,3.66646 -5.56688,2.69985 -1.62758,0.8254 11.48001,-6.77243 0.41949,-0.24316 -0.83283,0.49703 -1.25582,0.73404 -1.1917,0.66772 -2.40039,1.30061 -3.45163,2.18998 -1.02886,0.71375 -1.93342,1.53322 -2.92351,2.29661 -0.31489,0.24279 -0.64011,0.47189 -0.96016,0.70783 -0.34744,0.19444 -0.72174,0.34719 -1.04231,0.58331 -0.31179,0.22966 -0.55975,0.53527 -0.83963,0.8029 -1.84506,1.43122 -2.92701,3.80123 -3.98025,5.8432 -1.76101,3.0896 -3.85604,5.97276 -5.97214,8.82661 -2.44557,3.64561 -5.46814,6.9243 -8.81302,9.76474 -3.1963,2.78684 -6.23309,5.80515 -8.86961,9.13085 -3.72113,4.42852 -7.28644,9.01736 -10.18126,14.04064 -2.98627,4.75214 -5.53646,9.7632 -7.82702,14.88656 0,0 -14.81961,6.81004 -14.81961,6.81004 z"
         id="path8772"
         style="opacity:1;fill:#aad400;fill-opacity:1;stroke:none;stroke-width:1.5;stroke-linejoin:round;stroke-miterlimit:4;stroke-dasharray:none" />
      <path
         inkscape:connector-curvature="0"
         d="m 406.57656,199.62644 c -2.02953,-5.58737 -3.14602,-11.45228 -4.45434,-17.23745 -1.21213,-5.42566 -1.52213,-10.97493 -1.70673,-16.51216 -0.0862,-5.40301 -0.0513,-10.79751 -0.35396,-16.19407 -0.50473,-7.0657 -1.36329,-14.08344 -2.3086,-21.09974 -1.38235,-8.00964 -3.31559,-15.92422 -5.61071,-23.71864 -2.58865,-8.084095 -5.56829,-16.029858 -9.08584,-23.754203 -1.83228,-3.651257 -3.65707,-7.367834 -5.99501,-10.733769 -0.98266,-1.414735 -2.07538,-2.749902 -3.09354,-4.139304 -2.52628,-2.81804 -5.1,-5.637023 -8.11908,-7.937589 -2.14557,-1.60183 -4.26973,-3.280421 -6.7979,-4.219883 0,0 13.52038,-9.021054 13.52038,-9.021054 l 0,0 c 2.54978,1.192341 4.80633,2.870605 7.00867,4.61249 3.01482,2.504853 5.70312,5.386165 8.20931,8.394051 1.02293,1.426589 2.11595,2.803377 3.10302,4.255002 2.34922,3.454838 4.14573,7.264285 5.99186,10.997492 3.42538,7.845128 6.39665,15.868712 9.05374,24.006675 2.36712,7.853062 4.43046,15.783062 5.83127,23.873422 0.99242,7.0304 1.84552,14.06651 2.49796,21.13793 0.35428,5.40511 0.40201,10.80419 0.41057,16.22056 0.14373,5.45332 0.41126,10.92118 1.51581,16.27992 1.18745,5.70419 2.21928,11.53501 4.62228,16.87936 0,0 -14.23916,7.91096 -14.23916,7.91096 z"
         id="path8774"
         style="opacity:1;fill:#aad400;fill-opacity:1;stroke:none;stroke-width:1.5;stroke-linejoin:round;stroke-miterlimit:4;stroke-dasharray:none" />
      <path
         inkscape:connector-curvature="0"
         d="m 407.92651,192.78092 c 0.0241,-5.86284 1.46409,-11.51513 3.37205,-17.01229 3.08437,-9.08127 8.15272,-17.33148 12.80105,-25.67347 4.9884,-8.69083 9.68191,-17.54271 14.59361,-26.27644 2.73896,-5.06442 6.18929,-9.63769 9.81665,-14.08211 2.89132,-3.45155 5.93545,-6.76608 9.03195,-10.033139 2.95416,-3.11406 6.07878,-6.061592 9.1826,-9.025166 5.80528,-5.2903 13.44408,-8.619205 20.09317,-12.388396 5.37122,-1.547195 14.72821,-7.885073 -10.74737,6.589375 0,0 15.2492,-5.871072 15.2492,-5.871072 l 0,0 c -6.4562,3.682071 -11.02938,7.015295 -17.25993,9.441814 25.16459,-14.591003 12.62009,-7.981014 7.65264,-3.906614 -3.23628,2.867573 -6.29883,5.942178 -9.36958,8.984774 -3.08232,3.237838 -6.06425,6.560214 -9.0322,9.901254 -3.6404,4.47016 -7.38382,8.867 -10.17797,13.95079 -5.04679,8.74239 -9.89268,17.59494 -14.86182,26.38046 -4.58246,8.20735 -9.4453,16.40402 -12.60445,25.28433 -1.83913,5.25292 -3.49349,10.70217 -3.21526,16.33538 0,0 -14.52434,7.40052 -14.52434,7.40052 z"
         id="path8776"
         style="opacity:1;fill:#aad400;fill-opacity:1;stroke:none;stroke-width:1.5;stroke-linejoin:round;stroke-miterlimit:4;stroke-dasharray:none" />
      <path
         inkscape:connector-curvature="0"
         d="m 419.67028,203.3311 c 15.31324,-9.2427 30.91187,-18.01218 46.51415,-26.75872 8.42393,-4.70305 16.79009,-9.51548 25.34732,-13.97439 4.5336,-2.07706 9.10996,-4.16049 13.88731,-5.61708 3.72472,-0.9935 7.4928,-1.82008 11.29049,-2.47847 4.64819,-0.73671 9.36258,-0.80481 14.0568,-0.91156 2.53011,-0.2111 5.04715,-0.54636 7.57023,-0.82466 0,0 -13.01508,9.6688 -13.01508,9.6688 l 0,0 c -2.50656,0.25767 -5.0129,0.54483 -7.53303,0.63225 -4.66905,0.11681 -9.35691,0.29375 -13.95807,1.16322 -3.74236,0.75882 -7.49435,1.49552 -11.1466,2.62864 -4.64337,1.60376 -9.17616,3.54906 -13.58132,5.72034 -8.31951,4.38868 -16.54092,8.95627 -24.74969,13.54804 -2.20942,1.23511 -4.42099,2.46638 -6.62826,3.70533 -2.33694,1.31175 -4.57633,2.81243 -7.00434,3.94675 -2.18879,1.02257 4.11927,-2.53849 6.28433,-3.61037 0.0779,-0.0386 -8.69555,5.10037 -9.46175,5.54756 -0.92085,0.53745 -1.84391,1.07109 -2.76587,1.60664 0,0 -15.10662,6.00768 -15.10662,6.00768 z"
         id="path8778"
         style="opacity:1;fill:#aad400;fill-opacity:1;stroke:none;stroke-width:1.5;stroke-linejoin:round;stroke-miterlimit:4;stroke-dasharray:none" />
      <path
         inkscape:connector-curvature="0"
         d="m 397.6026,214.66665 c -3.91678,-3.5384 -7.57505,-7.35611 -11.48331,-10.8982 -4.74018,-4.47115 -9.38848,-9.03371 -14.29338,-13.32538 -5.79678,-5.02784 -12.0355,-9.52949 -18.21001,-14.08033 -0.85481,-0.64574 -1.71879,-1.2795 -2.56443,-1.9372 -2.67681,-2.08194 -2.60454,-2.20936 -5.38158,-4.08864 -2.50752,-1.69689 -5.15588,-3.20248 -7.73635,-4.78458 -4.70848,-2.84532 -9.81664,-4.91688 -15.05098,-6.56216 -4.17137,-1.39086 -8.5331,-2.0175 -12.84613,-2.7928 -3.15402,-0.58108 -6.35671,-0.73856 -9.55539,-0.82181 -3.33326,-0.0512 -6.66702,-0.0394 -10.00054,-0.0511 -4.36465,0.19718 -8.69531,-0.23427 -13.0403,-0.56119 -3.52126,-0.43639 -1.75862,-0.22048 -5.28794,-0.64769 0,0 13.08141,-9.26932 13.08141,-9.26932 l 0,0 c 3.51851,0.4121 1.76226,0.22131 5.26869,0.57284 4.34447,0.31353 8.68468,0.54413 13.04299,0.41088 3.364,-0.0194 6.72938,-0.0466 10.09238,0.0538 3.2344,0.13196 6.46324,0.40919 9.64024,1.05834 4.33825,0.82523 8.71052,1.55358 12.88988,3.03074 5.26956,1.83642 10.47885,3.93489 15.22761,6.90218 5.40154,3.4266 10.75767,6.8857 15.70741,10.95885 6.10232,4.67306 12.28356,9.25944 18.11609,14.26956 4.97238,4.26511 9.81028,8.69207 14.52681,13.23842 3.84805,3.60713 7.49831,7.44397 11.68148,10.67969 0,0 -13.82465,8.64512 -13.82465,8.64512 z"
         id="path8780"
         style="opacity:1;fill:#aad400;fill-opacity:1;stroke:none;stroke-width:1.5;stroke-linejoin:round;stroke-miterlimit:4;stroke-dasharray:none" />
    </g>
  </g>
</svg>
