<?xml version="1.0" encoding="UTF-8" standalone="no"?>
<!-- Created with Inkscape (http://www.inkscape.org/) -->

<svg
   xmlns:dc="http://purl.org/dc/elements/1.1/"
   xmlns:cc="http://creativecommons.org/ns#"
   xmlns:rdf="http://www.w3.org/1999/02/22-rdf-syntax-ns#"
   xmlns:svg="http://www.w3.org/2000/svg"
   xmlns="http://www.w3.org/2000/svg"
   xmlns:sodipodi="http://sodipodi.sourceforge.net/DTD/sodipodi-0.dtd"
   xmlns:inkscape="http://www.inkscape.org/namespaces/inkscape"
   width="1695.4269"
   height="1569.9875"
   viewBox="0 0 1695.4269 1569.9875"
   id="svg8574"
   version="1.1"
   inkscape:version="0.91 r13725"
   sodipodi:docname="kettle.svg">
  <defs
     id="defs8576" />
  <sodipodi:namedview
     id="base"
     pagecolor="#ffffff"
     bordercolor="#666666"
     borderopacity="1.0"
     inkscape:pageopacity="0.0"
     inkscape:pageshadow="2"
     inkscape:zoom="0.59870595"
     inkscape:cx="879.42866"
     inkscape:cy="947.05799"
     inkscape:document-units="px"
     inkscape:current-layer="layer1"
     showgrid="false"
     units="px"
     fit-margin-top="0"
     fit-margin-left="0"
     fit-margin-right="0"
     fit-margin-bottom="0"
     inkscape:window-width="1920"
     inkscape:window-height="1017"
     inkscape:window-x="1672"
     inkscape:window-y="-8"
     inkscape:window-maximized="1" />
  <metadata
     id="metadata8579">
    <rdf:RDF>
      <cc:Work
         rdf:about="">
        <dc:format>image/svg+xml</dc:format>
        <dc:type
           rdf:resource="http://purl.org/dc/dcmitype/StillImage" />
        <dc:title></dc:title>
      </cc:Work>
    </rdf:RDF>
  </metadata>
  <g
     inkscape:label="Layer 1"
     inkscape:groupmode="layer"
     id="layer1"
     transform="translate(-205.21483,662.47904)">
    <path
       style="fill:#b3b3b3;fill-opacity:1;stroke:#000000;stroke-width:2.37387323"
       d="m 932.12542,-661.2921 c -325.89214,-10e-4 -590.08016,253.55877 -590.07903,566.340302 0.14694,60.085746 10.25574,119.766222 29.94696,176.802567 C 265.06555,211.36663 206.49839,374.32644 206.40177,542.60008 c -0.001,398.93651 328.66406,362.86705 725.72764,362.86669 397.06179,-0.003 712.15979,36.068 712.15799,-362.86669 -0.2471,-17.13056 -1.1009,-34.24688 -2.5594,-51.31645 l 250.6477,-250.643 c 35.171,-35.17042 -70.3415,-140.682909 -105.5122,-105.51216 l -179.8487,179.84871 c -26.4025,-80.4015 -66.668,-155.51344 -118.9579,-221.906153 22.3832,-60.368898 33.9296,-123.945781 34.1476,-188.022825 0,-312.781532 -264.1869,-566.341362 -590.07908,-566.340302 z m 0,108.29407 c 263.57578,-5.5e-4 477.24648,205.07403 477.24588,458.046232 -0.062,31.854839 -3.5864,63.61655 -10.5156,94.76948999 C 1267.8971,-115.71716 1099.6266,-179.52444 925.34692,-179.7343 c -169.02582,0.26452 -332.55476,60.35505 -461.8667,169.718022 -5.61447,-27.993277 -8.49387,-56.428477 -8.60067,-84.93552 -5.2e-4,-252.972172 213.67005,-458.046762 477.24587,-458.046232 z"
       id="path9122"
       inkscape:connector-curvature="0"
       sodipodi:nodetypes="scccsccsscccsscccccs"
       inkscape:export-xdpi="90"
       inkscape:export-ydpi="90" />
    <ellipse
       style="fill:#cccccc;fill-opacity:1;stroke:#000000;stroke-width:0.66121656"
       id="path9122-5"
       cx="915.17114"
       cy="-37.301205"
       rx="302.67734"
       ry="133.11496"
       inkscape:export-xdpi="90"
       inkscape:export-ydpi="90" />
    <ellipse
       style="fill:#000000;fill-opacity:1;stroke:#000000;stroke-width:2.37387323"
       id="path9170"
       cx="927.00055"
       cy="-78.944038"
       rx="32.608761"
       ry="30.797167"
       inkscape:export-xdpi="90"
       inkscape:export-ydpi="90" />
  </g>
</svg>
